<svg t="1585904921573" class="icon" viewBox="0 0 1024 1024" version="1.1" xmlns="http://www.w3.org/2000/svg" p-id="5266" width="16" height="16"><path d="M217.212602 89.814562l0 833.298703 584.79084 0L802.003442 89.814562 217.212602 89.814562zM782.048971 902.463969 237.166049 902.463969 237.166049 110.463858l544.882921 0L782.048971 902.463969z" p-id="5267" fill="#515151"></path><path d="M287.994692 558.99636l216.064964 0 0 124.32454-216.064964 0 0-124.32454Z" p-id="5268" fill="#515151"></path><path d="M515.156388 558.99636l216.065987 0 0 35.302017-216.065987 0 0-35.302017Z" p-id="5269" fill="#515151"></path><path d="M515.156388 648.018883l216.065987 0 0 35.302017-216.065987 0 0-35.302017Z" p-id="5270" fill="#515151"></path><path d="M287.994692 723.228819l216.064964 0 0 35.302017-216.064964 0 0-35.302017Z" p-id="5271" fill="#515151"></path><path d="M515.156388 723.228819l216.065987 0 0 35.302017-216.065987 0 0-35.302017Z" p-id="5272" fill="#515151"></path><path d="M287.994692 806.116621l216.064964 0 0 35.302017-216.064964 0 0-35.302017Z" p-id="5273" fill="#515151"></path><path d="M515.156388 806.116621l216.065987 0 0 35.302017-216.065987 0 0-35.302017Z" p-id="5274" fill="#515151"></path></svg>